<svg xmlns="http://www.w3.org/2000/svg" xmlns:xlink="http://www.w3.org/1999/xlink" viewBox="0,0,256,256" width="24px" height="24px"><g fill="#ffffff" fill-rule="nonzero" stroke="none" stroke-width="1" stroke-linecap="butt" stroke-linejoin="miter" stroke-miterlimit="10" stroke-dasharray="" stroke-dashoffset="0" font-family="none" font-weight="none" font-size="none" text-anchor="none" style="mix-blend-mode: normal"><g transform="scale(10.66667,10.66667)"><path d="M5.41602,2.32813l7.51953,7.83008c0.197,0.205 0.5237,0.205 0.7207,0l1.52344,-1.58398c0.226,-0.235 0.17462,-0.61734 -0.10938,-0.77734c-3.933,-2.225 -8.8083,-4.98575 -9.6543,-5.46875zM3.14063,2.84766c-0.085,0.198 -0.14062,0.41525 -0.14062,0.65625v17.08789c0,0.197 0.04438,0.37883 0.10938,0.54883l8.4668,-8.81641c0.186,-0.193 0.186,-0.49741 0,-0.69141zM17.44336,9.25781c-0.10787,0.01512 -0.21006,0.06594 -0.28906,0.14844l-2.13867,2.22656c-0.186,0.193 -0.186,0.49741 0,0.69141l2.11914,2.20508c0.158,0.165 0.41137,0.19989 0.60938,0.08789c1.483,-0.84 2.48242,-1.4043 2.48242,-1.4043c0.499,-0.303 0.78044,-0.76934 0.77344,-1.27734c-0.008,-0.496 -0.29739,-0.95361 -0.77539,-1.22461c-0.061,-0.034 -1.03694,-0.58658 -2.46094,-1.39258c-0.0995,-0.056 -0.21244,-0.07567 -0.32031,-0.06055zM13.29688,13.64453c-0.131,0 -0.26283,0.0518 -0.36133,0.1543l-7.46094,7.76758c1.282,-0.729 5.85417,-3.31683 9.57617,-5.42383c0.284,-0.161 0.33537,-0.5433 0.10938,-0.7793l-1.50391,-1.56445c-0.0985,-0.1025 -0.22837,-0.1543 -0.35937,-0.1543z"></path></g></g></svg>